<mxfile host="app.diagrams.net" modified="2021-06-29T21:48:21.582Z" agent="5.0 (Macintosh; Intel Mac OS X 10_15_7) AppleWebKit/537.36 (KHTML, like Gecko) Chrome/91.0.4472.114 Safari/537.36" etag="mFZKxhVTaOpx8OcGglOe" version="14.8.2" type="github">
  <diagram id="8TeBlEjZd0xaxQEkmp6p" name="Page-1">
    <mxGraphModel dx="1033" dy="679" grid="1" gridSize="10" guides="1" tooltips="1" connect="1" arrows="1" fold="1" page="1" pageScale="1" pageWidth="850" pageHeight="1100" math="0" shadow="0">
      <root>
        <mxCell id="0" />
        <mxCell id="1" parent="0" />
        <mxCell id="6WA8Naq5vIo-Tjhb_ffu-6" style="rounded=0;orthogonalLoop=1;jettySize=auto;html=1;exitX=1;exitY=1;exitDx=0;exitDy=0;entryX=0.5;entryY=0;entryDx=0;entryDy=0;" edge="1" parent="1" source="6WA8Naq5vIo-Tjhb_ffu-1" target="6WA8Naq5vIo-Tjhb_ffu-3">
          <mxGeometry relative="1" as="geometry" />
        </mxCell>
        <mxCell id="6WA8Naq5vIo-Tjhb_ffu-17" value="&lt;font style=&quot;font-size: 24px&quot;&gt;2&lt;/font&gt;" style="edgeLabel;html=1;align=center;verticalAlign=middle;resizable=0;points=[];" vertex="1" connectable="0" parent="6WA8Naq5vIo-Tjhb_ffu-6">
          <mxGeometry x="0.6714" y="2" relative="1" as="geometry">
            <mxPoint y="2" as="offset" />
          </mxGeometry>
        </mxCell>
        <mxCell id="6WA8Naq5vIo-Tjhb_ffu-18" value="&lt;font style=&quot;font-size: 18px&quot;&gt;DNS query&lt;/font&gt;" style="edgeLabel;html=1;align=center;verticalAlign=middle;resizable=0;points=[];" vertex="1" connectable="0" parent="6WA8Naq5vIo-Tjhb_ffu-6">
          <mxGeometry x="0.3051" y="2" relative="1" as="geometry">
            <mxPoint y="5" as="offset" />
          </mxGeometry>
        </mxCell>
        <mxCell id="6WA8Naq5vIo-Tjhb_ffu-1" value="&lt;font style=&quot;font-size: 24px&quot;&gt;Client&lt;br&gt;iodine&lt;br&gt;&lt;/font&gt;" style="rounded=0;whiteSpace=wrap;html=1;" vertex="1" parent="1">
          <mxGeometry x="120" y="80" width="160" height="240" as="geometry" />
        </mxCell>
        <mxCell id="6WA8Naq5vIo-Tjhb_ffu-19" style="edgeStyle=none;rounded=0;orthogonalLoop=1;jettySize=auto;html=1;exitX=0;exitY=1;exitDx=0;exitDy=0;strokeWidth=1;" edge="1" parent="1" source="6WA8Naq5vIo-Tjhb_ffu-2">
          <mxGeometry relative="1" as="geometry">
            <mxPoint x="400" y="540" as="targetPoint" />
          </mxGeometry>
        </mxCell>
        <mxCell id="6WA8Naq5vIo-Tjhb_ffu-20" value="&lt;font style=&quot;font-size: 24px&quot;&gt;4&lt;/font&gt;" style="edgeLabel;html=1;align=center;verticalAlign=middle;resizable=0;points=[];" vertex="1" connectable="0" parent="6WA8Naq5vIo-Tjhb_ffu-19">
          <mxGeometry x="0.7179" relative="1" as="geometry">
            <mxPoint x="-2" y="-4" as="offset" />
          </mxGeometry>
        </mxCell>
        <mxCell id="6WA8Naq5vIo-Tjhb_ffu-21" value="&lt;font style=&quot;font-size: 18px&quot;&gt;DNS response&lt;/font&gt;" style="edgeLabel;html=1;align=center;verticalAlign=middle;resizable=0;points=[];" vertex="1" connectable="0" parent="6WA8Naq5vIo-Tjhb_ffu-19">
          <mxGeometry x="-0.7306" y="2" relative="1" as="geometry">
            <mxPoint x="1" y="-2" as="offset" />
          </mxGeometry>
        </mxCell>
        <mxCell id="6WA8Naq5vIo-Tjhb_ffu-2" value="&lt;font style=&quot;font-size: 24px&quot;&gt;Server&lt;br&gt;iodined&lt;br&gt;&lt;/font&gt;" style="rounded=0;whiteSpace=wrap;html=1;" vertex="1" parent="1">
          <mxGeometry x="520" y="80" width="160" height="240" as="geometry" />
        </mxCell>
        <mxCell id="6WA8Naq5vIo-Tjhb_ffu-11" style="edgeStyle=none;rounded=0;orthogonalLoop=1;jettySize=auto;html=1;exitX=0;exitY=0;exitDx=0;exitDy=0;entryX=0;entryY=1;entryDx=0;entryDy=0;" edge="1" parent="1" source="6WA8Naq5vIo-Tjhb_ffu-3" target="6WA8Naq5vIo-Tjhb_ffu-1">
          <mxGeometry relative="1" as="geometry" />
        </mxCell>
        <mxCell id="6WA8Naq5vIo-Tjhb_ffu-12" value="&lt;font style=&quot;font-size: 24px&quot;&gt;5&lt;/font&gt;" style="edgeLabel;html=1;align=center;verticalAlign=middle;resizable=0;points=[];" vertex="1" connectable="0" parent="6WA8Naq5vIo-Tjhb_ffu-11">
          <mxGeometry x="-0.6942" y="1" relative="1" as="geometry">
            <mxPoint x="1" y="-1" as="offset" />
          </mxGeometry>
        </mxCell>
        <mxCell id="6WA8Naq5vIo-Tjhb_ffu-16" value="&lt;font style=&quot;font-size: 18px&quot;&gt;DNS response&lt;/font&gt;" style="edgeLabel;html=1;align=center;verticalAlign=middle;resizable=0;points=[];" vertex="1" connectable="0" parent="6WA8Naq5vIo-Tjhb_ffu-11">
          <mxGeometry x="-0.3405" y="-1" relative="1" as="geometry">
            <mxPoint y="1" as="offset" />
          </mxGeometry>
        </mxCell>
        <mxCell id="6WA8Naq5vIo-Tjhb_ffu-22" style="edgeStyle=none;rounded=0;orthogonalLoop=1;jettySize=auto;html=1;exitX=1;exitY=0;exitDx=0;exitDy=0;entryX=1;entryY=1;entryDx=0;entryDy=0;strokeWidth=1;" edge="1" parent="1" source="6WA8Naq5vIo-Tjhb_ffu-3" target="6WA8Naq5vIo-Tjhb_ffu-2">
          <mxGeometry relative="1" as="geometry" />
        </mxCell>
        <mxCell id="6WA8Naq5vIo-Tjhb_ffu-23" value="&lt;font style=&quot;font-size: 24px&quot;&gt;3&lt;/font&gt;" style="edgeLabel;html=1;align=center;verticalAlign=middle;resizable=0;points=[];" vertex="1" connectable="0" parent="6WA8Naq5vIo-Tjhb_ffu-22">
          <mxGeometry x="-0.6653" relative="1" as="geometry">
            <mxPoint y="1" as="offset" />
          </mxGeometry>
        </mxCell>
        <mxCell id="6WA8Naq5vIo-Tjhb_ffu-24" value="&lt;font style=&quot;font-size: 18px&quot;&gt;DNS query&lt;/font&gt;" style="edgeLabel;html=1;align=center;verticalAlign=middle;resizable=0;points=[];" vertex="1" connectable="0" parent="6WA8Naq5vIo-Tjhb_ffu-22">
          <mxGeometry x="0.019" y="-1" relative="1" as="geometry">
            <mxPoint as="offset" />
          </mxGeometry>
        </mxCell>
        <mxCell id="6WA8Naq5vIo-Tjhb_ffu-3" value="&lt;font style=&quot;font-size: 24px&quot;&gt;DNS proxy&lt;br&gt;&lt;/font&gt;" style="rounded=0;whiteSpace=wrap;html=1;" vertex="1" parent="1">
          <mxGeometry x="120" y="540" width="560" height="240" as="geometry" />
        </mxCell>
        <mxCell id="6WA8Naq5vIo-Tjhb_ffu-8" value="&lt;font style=&quot;font-size: 24px&quot;&gt;Firewall&lt;/font&gt;" style="rounded=0;whiteSpace=wrap;html=1;" vertex="1" parent="1">
          <mxGeometry x="80" y="400" width="360" height="40" as="geometry" />
        </mxCell>
        <mxCell id="6WA8Naq5vIo-Tjhb_ffu-7" style="edgeStyle=none;rounded=0;orthogonalLoop=1;jettySize=auto;html=1;exitX=0.5;exitY=1;exitDx=0;exitDy=0;entryX=0.143;entryY=0.003;entryDx=0;entryDy=0;entryPerimeter=0;strokeWidth=4;" edge="1" parent="1" source="6WA8Naq5vIo-Tjhb_ffu-1" target="6WA8Naq5vIo-Tjhb_ffu-3">
          <mxGeometry relative="1" as="geometry" />
        </mxCell>
        <mxCell id="6WA8Naq5vIo-Tjhb_ffu-13" value="&lt;font style=&quot;font-size: 24px&quot;&gt;1&lt;/font&gt;" style="edgeLabel;html=1;align=center;verticalAlign=middle;resizable=0;points=[];" vertex="1" connectable="0" parent="6WA8Naq5vIo-Tjhb_ffu-7">
          <mxGeometry x="0.678" y="1" relative="1" as="geometry">
            <mxPoint y="1" as="offset" />
          </mxGeometry>
        </mxCell>
        <mxCell id="6WA8Naq5vIo-Tjhb_ffu-14" value="&lt;font style=&quot;font-size: 18px&quot;&gt;Traffic DoH&lt;/font&gt;" style="edgeLabel;html=1;align=center;verticalAlign=middle;resizable=0;points=[];" vertex="1" connectable="0" parent="6WA8Naq5vIo-Tjhb_ffu-7">
          <mxGeometry x="0.332" y="2" relative="1" as="geometry">
            <mxPoint y="-117" as="offset" />
          </mxGeometry>
        </mxCell>
        <mxCell id="6WA8Naq5vIo-Tjhb_ffu-26" value="&lt;h1 style=&quot;font-size: 14px&quot;&gt;&lt;font style=&quot;font-weight: normal ; font-size: 14px&quot; face=&quot;Tahoma&quot;&gt;Steps 2 and 5 are inside &quot;Traffic DoH&quot;.&lt;/font&gt;&lt;/h1&gt;&lt;div style=&quot;font-size: 14px&quot;&gt;&lt;font face=&quot;Tahoma&quot; style=&quot;font-size: 14px&quot;&gt;&quot;Traffic DoH&quot; contains inside itself dns tunnels.&lt;/font&gt;&lt;/div&gt;" style="text;html=1;strokeColor=none;fillColor=none;spacing=5;spacingTop=-20;whiteSpace=wrap;overflow=hidden;rounded=0;" vertex="1" parent="1">
          <mxGeometry x="305" y="80" width="190" height="120" as="geometry" />
        </mxCell>
      </root>
    </mxGraphModel>
  </diagram>
</mxfile>
